<?xml version="1.0" encoding="us-ascii" standalone="no"?><svg xmlns="http://www.w3.org/2000/svg" xmlns:xlink="http://www.w3.org/1999/xlink" contentStyleType="text/css" height="269px" preserveAspectRatio="none" style="width:1402px;height:269px;background:#FFFFFF;" version="1.1" viewBox="0 0 1402 269" width="1402px" zoomAndPan="magnify"><defs/><g><!--entity api-client--><g id="elem_api-client"><rect fill="#F1F1F1" height="46.2969" rx="2.5" ry="2.5" style="stroke:#181818;stroke-width:0.5;" width="106" x="114" y="130"/><rect fill="#F1F1F1" height="10" style="stroke:#181818;stroke-width:0.5;" width="15" x="200" y="135"/><rect fill="#F1F1F1" height="2" style="stroke:#181818;stroke-width:0.5;" width="4" x="198" y="137"/><rect fill="#F1F1F1" height="2" style="stroke:#181818;stroke-width:0.5;" width="4" x="198" y="141"/><text fill="#000000" font-family="sans-serif" font-size="14" lengthAdjust="spacing" textLength="66" x="129" y="162.9951">api-client</text></g><!--entity api--><g id="elem_api"><rect fill="#F1F1F1" height="46.2969" rx="2.5" ry="2.5" style="stroke:#181818;stroke-width:0.5;" width="62" x="329" y="7"/><rect fill="#F1F1F1" height="10" style="stroke:#181818;stroke-width:0.5;" width="15" x="371" y="12"/><rect fill="#F1F1F1" height="2" style="stroke:#181818;stroke-width:0.5;" width="4" x="369" y="14"/><rect fill="#F1F1F1" height="2" style="stroke:#181818;stroke-width:0.5;" width="4" x="369" y="18"/><text fill="#000000" font-family="sans-serif" font-size="14" lengthAdjust="spacing" textLength="22" x="344" y="39.9951">api</text></g><!--entity api-docs--><g id="elem_api-docs"><rect fill="#F1F1F1" height="46.2969" rx="2.5" ry="2.5" style="stroke:#181818;stroke-width:0.5;" width="100" x="310" y="130"/><rect fill="#F1F1F1" height="10" style="stroke:#181818;stroke-width:0.5;" width="15" x="390" y="135"/><rect fill="#F1F1F1" height="2" style="stroke:#181818;stroke-width:0.5;" width="4" x="388" y="137"/><rect fill="#F1F1F1" height="2" style="stroke:#181818;stroke-width:0.5;" width="4" x="388" y="141"/><text fill="#000000" font-family="sans-serif" font-size="14" lengthAdjust="spacing" textLength="60" x="325" y="162.9951">api-docs</text></g><!--entity api-server-stubs--><g id="elem_api-server-stubs"><rect fill="#F1F1F1" height="46.2969" rx="2.5" ry="2.5" style="stroke:#181818;stroke-width:0.5;" width="154" x="554" y="130"/><rect fill="#F1F1F1" height="10" style="stroke:#181818;stroke-width:0.5;" width="15" x="688" y="135"/><rect fill="#F1F1F1" height="2" style="stroke:#181818;stroke-width:0.5;" width="4" x="686" y="137"/><rect fill="#F1F1F1" height="2" style="stroke:#181818;stroke-width:0.5;" width="4" x="686" y="141"/><text fill="#000000" font-family="sans-serif" font-size="14" lengthAdjust="spacing" textLength="114" x="569" y="162.9951">api-server-stubs</text></g><!--entity service--><g id="elem_service"><rect fill="#F1F1F1" height="46.2969" rx="2.5" ry="2.5" style="stroke:#181818;stroke-width:0.5;" width="91" x="881.5" y="130"/><rect fill="#F1F1F1" height="10" style="stroke:#181818;stroke-width:0.5;" width="15" x="952.5" y="135"/><rect fill="#F1F1F1" height="2" style="stroke:#181818;stroke-width:0.5;" width="4" x="950.5" y="137"/><rect fill="#F1F1F1" height="2" style="stroke:#181818;stroke-width:0.5;" width="4" x="950.5" y="141"/><text fill="#000000" font-family="sans-serif" font-size="14" lengthAdjust="spacing" textLength="51" x="896.5" y="162.9951">service</text></g><!--entity deployment--><g id="elem_deployment"><rect fill="#F1F1F1" height="46.2969" rx="2.5" ry="2.5" style="stroke:#181818;stroke-width:0.5;" width="125" x="864.5" y="7"/><rect fill="#F1F1F1" height="10" style="stroke:#181818;stroke-width:0.5;" width="15" x="969.5" y="12"/><rect fill="#F1F1F1" height="2" style="stroke:#181818;stroke-width:0.5;" width="4" x="967.5" y="14"/><rect fill="#F1F1F1" height="2" style="stroke:#181818;stroke-width:0.5;" width="4" x="967.5" y="18"/><text fill="#000000" font-family="sans-serif" font-size="14" lengthAdjust="spacing" textLength="85" x="879.5" y="39.9951">deployment</text></g><g id="elem_GMN17"><path d="M70,17.5 L70,42.6328 A0,0 0 0 0 70,42.6328 L294,42.6328 A0,0 0 0 0 294,42.6328 L294,35.5 L328.94,30 L294,27.5 L294,27.5 L284,17.5 L70,17.5 A0,0 0 0 0 70,17.5 " fill="#FEFFDD" style="stroke:#181818;stroke-width:0.5;"/><path d="M284,17.5 L284,27.5 L294,27.5 L284,17.5 " fill="#FEFFDD" style="stroke:#181818;stroke-width:0.5;"/><text fill="#000000" font-family="sans-serif" font-size="13" lengthAdjust="spacing" textLength="203" x="76" y="34.5669">Contains OpenAPI specification</text></g><g id="elem_GMN20"><path d="M6,237 L6,262.1328 A0,0 0 0 0 6,262.1328 L216,262.1328 A0,0 0 0 0 216,262.1328 L216,247 L206,237 L121.88,237 L153.73,176.4 L113.88,237 L6,237 A0,0 0 0 0 6,237 " fill="#FEFFDD" style="stroke:#181818;stroke-width:0.5;"/><path d="M206,237 L206,247 L216,247 L206,237 " fill="#FEFFDD" style="stroke:#181818;stroke-width:0.5;"/><text fill="#000000" font-family="sans-serif" font-size="13" lengthAdjust="spacing" textLength="189" x="12" y="254.0669">Generated API Client for Java</text></g><g id="elem_GMN23"><path d="M251,237 L251,262.1328 A0,0 0 0 0 251,262.1328 L469,262.1328 A0,0 0 0 0 469,262.1328 L469,247 L459,237 L364,237 L360,176.4 L356,237 L251,237 A0,0 0 0 0 251,237 " fill="#FEFFDD" style="stroke:#181818;stroke-width:0.5;"/><path d="M459,237 L459,247 L469,247 L459,237 " fill="#FEFFDD" style="stroke:#181818;stroke-width:0.5;"/><text fill="#000000" font-family="sans-serif" font-size="13" lengthAdjust="spacing" textLength="197" x="257" y="254.0669">Generated API Documentation</text></g><g id="elem_GMN26"><path d="M504,237 L504,262.1328 A0,0 0 0 0 504,262.1328 L758,262.1328 A0,0 0 0 0 758,262.1328 L758,247 L748,237 L635,237 L631,176.4 L627,237 L504,237 A0,0 0 0 0 504,237 " fill="#FEFFDD" style="stroke:#181818;stroke-width:0.5;"/><path d="M748,237 L748,247 L758,247 L748,237 " fill="#FEFFDD" style="stroke:#181818;stroke-width:0.5;"/><text fill="#000000" font-family="sans-serif" font-size="13" lengthAdjust="spacing" textLength="233" x="510" y="254.0669">Generated API Server Stubs for Java</text></g><g id="elem_GMN29"><path d="M793,237 L793,262.1328 A0,0 0 0 0 793,262.1328 L1177,262.1328 A0,0 0 0 0 1177,262.1328 L1177,247 L1167,237 L981.88,237 L940.75,176.4 L973.88,237 L793,237 A0,0 0 0 0 793,237 " fill="#FEFFDD" style="stroke:#181818;stroke-width:0.5;"/><path d="M1167,237 L1167,247 L1177,247 L1167,237 " fill="#FEFFDD" style="stroke:#181818;stroke-width:0.5;"/><text fill="#000000" font-family="sans-serif" font-size="13" lengthAdjust="spacing" textLength="363" x="799" y="254.0669">Web, Business (Domain), Storage layer implementation</text></g><g id="elem_GMN32"><path d="M1024.5,17.5 L1024.5,26 L989.74,30 L1024.5,34 L1024.5,42.6328 A0,0 0 0 0 1024.5,42.6328 L1395.5,42.6328 A0,0 0 0 0 1395.5,42.6328 L1395.5,27.5 L1385.5,17.5 L1024.5,17.5 A0,0 0 0 0 1024.5,17.5 " fill="#FEFFDD" style="stroke:#181818;stroke-width:0.5;"/><path d="M1385.5,17.5 L1385.5,27.5 L1395.5,27.5 L1385.5,17.5 " fill="#FEFFDD" style="stroke:#181818;stroke-width:0.5;"/><text fill="#000000" font-family="sans-serif" font-size="13" lengthAdjust="spacing" textLength="350" x="1030.5" y="34.5669">Terraform and Helm code for deployment automation</text></g><!--reverse link api to api-client--><g id="link_api_api-client"><path d="M323.9064,53.627 C289.2764,75.337 238.42,107.22 202.18,129.94 " fill="none" id="api-backto-api-client" style="stroke:#181818;stroke-width:1.0;"/><polygon fill="#181818" points="328.99,50.44,319.2399,51.8314,324.7537,53.0958,323.4892,58.6096,328.99,50.44" style="stroke:#181818;stroke-width:1.0;"/><text fill="#000000" font-family="sans-serif" font-size="13" lengthAdjust="spacing" textLength="30" x="277" y="96.0669">uses</text></g><!--reverse link api to api-docs--><g id="link_api_api-docs"><path d="M360,59.19 C360,81.03 360,108.16 360,129.95 " fill="none" id="api-backto-api-docs" style="stroke:#181818;stroke-width:1.0;"/><polygon fill="#181818" points="360,53.19,356,62.19,360,58.19,364,62.19,360,53.19" style="stroke:#181818;stroke-width:1.0;"/><text fill="#000000" font-family="sans-serif" font-size="13" lengthAdjust="spacing" textLength="30" x="361" y="96.0669">uses</text></g><!--reverse link api to api-server-stubs--><g id="link_api_api-server-stubs"><path d="M396.5684,47.3269 C443.1384,68.1269 526,105.12 581.51,129.9 " fill="none" id="api-backto-api-server-stubs" style="stroke:#181818;stroke-width:1.0;"/><polygon fill="#181818" points="391.09,44.88,397.6764,52.2026,395.6553,46.9191,400.9388,44.898,391.09,44.88" style="stroke:#181818;stroke-width:1.0;"/><text fill="#000000" font-family="sans-serif" font-size="13" lengthAdjust="spacing" textLength="30" x="513" y="96.0669">uses</text></g><!--reverse link api-server-stubs to service--><g id="link_api-server-stubs_service"><path d="M726.38,153 C781.37,153 835.34,153 881.38,153 " fill="none" id="api-server-stubs-backto-service" style="stroke:#181818;stroke-width:1.0;stroke-dasharray:7.0,7.0;"/><polygon fill="none" points="708.38,153,726.38,159,726.38,147,708.38,153" style="stroke:#181818;stroke-width:1.0;"/><text fill="#000000" font-family="sans-serif" font-size="13" lengthAdjust="spacing" textLength="78" x="755.75" y="146.0669">implements</text></g><!--link deployment to service--><g id="link_deployment_service"><path d="M927,53.19 C927,75.03 927,102.16 927,123.95 " fill="none" id="deployment-to-service" style="stroke:#181818;stroke-width:1.0;"/><polygon fill="#181818" points="927,129.95,931,120.95,927,124.95,923,120.95,927,129.95" style="stroke:#181818;stroke-width:1.0;"/><text fill="#000000" font-family="sans-serif" font-size="13" lengthAdjust="spacing" textLength="51" x="928" y="96.0669">deploys</text></g><!--SRC=[ZP7DQiCm48JlVeezjX3d0Nmej0dqvz922Zq47sHvdGWahT1AWK0Vlf9SfsrmQ7IJPkVJQBGLJjLIAxIXXJgw-WwswQY51Y8ZLtbJzoJviihe3-Xh3h6xC9KdbCGMbXg7iFmSzJDZ0yeuZIObIPOUdQQZ6MDbu8dHmAXnLLaA21a9D8nNLf3MYcmGoZAyEhJtRy_03gKQb1H1aQtGzf2Tt_wEGY0p4QOk2kWHBNeHi8TCMHK51lBm8WxY7qxfR8Qo9Xdpiwx9ygUW6TQcwB39-ZMvfWuBwWEx1Jn4LXQPuMPD9dLskqWqycANUXN7n3xzoMnUhtRxiVnV_rNex-YzI94CY6HvGcr0KeybvSyiY9YodQ6_0000]--></g></svg>